# xmcd
#
# Track frame offsets: 
#        150
#        28192
#        62287
#        94850
#        121417
#        156110
#        186415
#        212252
#        240937
#        279852
#
# Disc length: 4061 seconds
#
# Revision: 2
# Processed by: cddbd v1.5.2PL0 Copyright (c) Steve Scherf et al.
# Submitted via: ExactAudioCopyFreeDBPlugin 1.0
#
DISCID=7a0fdb0a
DTITLE=Davis, Miles - Birdland 1951
DYEAR=1951
DGENRE=Jazz
TTITLE0=Move
TTITLE1=Half Nelson
TTITLE2=Down
TTITLE3=Out Of The Blue
TTITLE4=Half Nelson
TTITLE5=Tempus Fugit
TTITLE6=Move
TTITLE7=Move
TTITLE8=The Squirrel
TTITLE9=Lady Bird
EXTD=YEAR: 1951
EXTT0=
EXTT1=
EXTT2=
EXTT3=
EXTT4=
EXTT5=
EXTT6=
EXTT7=
EXTT8=
EXTT9=
PLAYORDER=
